# xmcd CD database file
#
# Track frame offsets:
#	150
#	18927
#	38672
#	67102
#
# Disc length: 1347 seconds
#
# Revision: 0
# Processed by: cddbd v1.4b42PL1 Copyright (c) Steve Scherf et al.
# Submitted via: Feurio! 1.61 - http://www.feurio.com
#
DISCID=2b054104
DTITLE=The Blessing - Soul Love
DYEAR=1900
DGENRE=
TTITLE0=The Blessing feat. Cutty Ranks - Soul Love (7" Version)
TTITLE1=You Owe Me Nothing
TTITLE2=Sweetheart Like You
TTITLE3=The Blessing feat. Cutty Ranks - Soul Love (12" Version)
EXTD=
EXTT0=
EXTT1=
EXTT2=
EXTT3=
PLAYORDER=
